<svg width="84" height="40" viewBox="0 0 84 40" fill="none" xmlns="http://www.w3.org/2000/svg">
<rect x="0.35" y="0.35" width="83.3" height="39.3" rx="5.65" fill="black"/>
<path opacity="0.5" d="M14.196 8.73935H12.036V7.95635H17.247V8.73935H15.087V14.2563H14.196V8.73935ZM21.92 11.8983C21.92 11.9643 21.914 12.0513 21.902 12.1593H18.032C18.086 12.5793 18.269 12.9183 18.581 13.1763C18.899 13.4283 19.292 13.5543 19.76 13.5543C20.33 13.5543 20.789 13.3623 21.137 12.9783L21.614 13.5363C21.398 13.7883 21.128 13.9803 20.804 14.1123C20.486 14.2443 20.129 14.3103 19.733 14.3103C19.229 14.3103 18.782 14.2083 18.392 14.0043C18.002 13.7943 17.699 13.5033 17.483 13.1313C17.273 12.7593 17.168 12.3393 17.168 11.8713C17.168 11.4093 17.27 10.9923 17.474 10.6203C17.684 10.2483 17.969 9.96035 18.329 9.75635C18.695 9.54635 19.106 9.44135 19.562 9.44135C20.018 9.44135 20.423 9.54635 20.777 9.75635C21.137 9.96035 21.416 10.2483 21.614 10.6203C21.818 10.9923 21.92 11.4183 21.92 11.8983ZM19.562 10.1703C19.148 10.1703 18.8 10.2963 18.518 10.5483C18.242 10.8003 18.08 11.1303 18.032 11.5383H21.092C21.044 11.1363 20.879 10.8093 20.597 10.5573C20.321 10.2993 19.976 10.1703 19.562 10.1703ZM23.1198 7.57835H23.9838V14.2563H23.1198V7.57835ZM29.9445 11.8983C29.9445 11.9643 29.9385 12.0513 29.9265 12.1593H26.0565C26.1105 12.5793 26.2935 12.9183 26.6055 13.1763C26.9235 13.4283 27.3165 13.5543 27.7845 13.5543C28.3545 13.5543 28.8135 13.3623 29.1615 12.9783L29.6385 13.5363C29.4225 13.7883 29.1525 13.9803 28.8285 14.1123C28.5105 14.2443 28.1535 14.3103 27.7575 14.3103C27.2535 14.3103 26.8065 14.2083 26.4165 14.0043C26.0265 13.7943 25.7235 13.5033 25.5075 13.1313C25.2975 12.7593 25.1925 12.3393 25.1925 11.8713C25.1925 11.4093 25.2945 10.9923 25.4985 10.6203C25.7085 10.2483 25.9935 9.96035 26.3535 9.75635C26.7195 9.54635 27.1305 9.44135 27.5865 9.44135C28.0425 9.44135 28.4475 9.54635 28.8015 9.75635C29.1615 9.96035 29.4405 10.2483 29.6385 10.6203C29.8425 10.9923 29.9445 11.4183 29.9445 11.8983ZM27.5865 10.1703C27.1725 10.1703 26.8245 10.2963 26.5425 10.5483C26.2665 10.8003 26.1045 11.1303 26.0565 11.5383H29.1165C29.0685 11.1363 28.9035 10.8093 28.6215 10.5573C28.3455 10.2993 28.0005 10.1703 27.5865 10.1703ZM35.7072 9.48635V13.6083C35.7072 14.4423 35.5002 15.0573 35.0862 15.4533C34.6722 15.8553 34.0542 16.0563 33.2322 16.0563C32.7822 16.0563 32.3532 15.9933 31.9452 15.8673C31.5372 15.7473 31.2072 15.5733 30.9552 15.3453L31.3692 14.6793C31.5912 14.8713 31.8642 15.0213 32.1882 15.1293C32.5182 15.2433 32.8572 15.3003 33.2052 15.3003C33.7632 15.3003 34.1742 15.1683 34.4382 14.9043C34.7082 14.6403 34.8432 14.2383 34.8432 13.6983V13.3203C34.6392 13.5663 34.3872 13.7523 34.0872 13.8783C33.7932 13.9983 33.4722 14.0583 33.1242 14.0583C32.6682 14.0583 32.2542 13.9623 31.8822 13.7703C31.5162 13.5723 31.2282 13.2993 31.0182 12.9513C30.8082 12.5973 30.7032 12.1953 30.7032 11.7453C30.7032 11.2953 30.8082 10.8963 31.0182 10.5483C31.2282 10.1943 31.5162 9.92135 31.8822 9.72935C32.2542 9.53735 32.6682 9.44135 33.1242 9.44135C33.4842 9.44135 33.8172 9.50735 34.1232 9.63935C34.4352 9.77135 34.6902 9.96635 34.8882 10.2243V9.48635H35.7072ZM33.2232 13.3023C33.5352 13.3023 33.8142 13.2363 34.0602 13.1043C34.3122 12.9723 34.5072 12.7893 34.6452 12.5553C34.7892 12.3153 34.8612 12.0453 34.8612 11.7453C34.8612 11.2833 34.7082 10.9113 34.4022 10.6293C34.0962 10.3413 33.7032 10.1973 33.2232 10.1973C32.7372 10.1973 32.3412 10.3413 32.0352 10.6293C31.7292 10.9113 31.5762 11.2833 31.5762 11.7453C31.5762 12.0453 31.6452 12.3153 31.7832 12.5553C31.9272 12.7893 32.1222 12.9723 32.3682 13.1043C32.6202 13.2363 32.9052 13.3023 33.2232 13.3023ZM38.1861 10.2873C38.3361 10.0113 38.5581 9.80135 38.8521 9.65735C39.1461 9.51335 39.5031 9.44135 39.9231 9.44135V10.2783C39.8751 10.2723 39.8091 10.2693 39.7251 10.2693C39.2571 10.2693 38.8881 10.4103 38.6181 10.6923C38.3541 10.9683 38.2221 11.3643 38.2221 11.8803V14.2563H37.3581V9.48635H38.1861V10.2873ZM42.7162 9.44135C43.3762 9.44135 43.8802 9.60335 44.2282 9.92735C44.5822 10.2513 44.7592 10.7343 44.7592 11.3763V14.2563H43.9402V13.6263C43.7962 13.8483 43.5892 14.0193 43.3192 14.1393C43.0552 14.2533 42.7402 14.3103 42.3742 14.3103C41.8402 14.3103 41.4112 14.1813 41.0872 13.9233C40.7692 13.6653 40.6102 13.3263 40.6102 12.9063C40.6102 12.4863 40.7632 12.1503 41.0692 11.8983C41.3752 11.6403 41.8612 11.5113 42.5272 11.5113H43.8952V11.3403C43.8952 10.9683 43.7872 10.6833 43.5712 10.4853C43.3552 10.2873 43.0372 10.1883 42.6172 10.1883C42.3352 10.1883 42.0592 10.2363 41.7892 10.3323C41.5192 10.4223 41.2912 10.5453 41.1052 10.7013L40.7452 10.0533C40.9912 9.85535 41.2852 9.70535 41.6272 9.60335C41.9692 9.49535 42.3322 9.44135 42.7162 9.44135ZM42.5182 13.6443C42.8482 13.6443 43.1332 13.5723 43.3732 13.4283C43.6132 13.2783 43.7872 13.0683 43.8952 12.7983V12.1323H42.5632C41.8312 12.1323 41.4652 12.3783 41.4652 12.8703C41.4652 13.1103 41.5582 13.2993 41.7442 13.4373C41.9302 13.5753 42.1882 13.6443 42.5182 13.6443ZM52.3251 9.44135C52.9251 9.44135 53.3991 9.61535 53.7471 9.96335C54.1011 10.3113 54.2781 10.8273 54.2781 11.5113V14.2563H53.4141V11.6103C53.4141 11.1483 53.3061 10.8003 53.0901 10.5663C52.8801 10.3323 52.5771 10.2153 52.1811 10.2153C51.7431 10.2153 51.3951 10.3533 51.1371 10.6293C50.8791 10.8993 50.7501 11.2893 50.7501 11.7993V14.2563H49.8861V11.6103C49.8861 11.1483 49.7781 10.8003 49.5621 10.5663C49.3521 10.3323 49.0491 10.2153 48.6531 10.2153C48.2151 10.2153 47.8671 10.3533 47.6091 10.6293C47.3511 10.8993 47.2221 11.2893 47.2221 11.7993V14.2563H46.3581V9.48635H47.1861V10.1973C47.3601 9.95135 47.5881 9.76535 47.8701 9.63935C48.1521 9.50735 48.4731 9.44135 48.8331 9.44135C49.2051 9.44135 49.5351 9.51635 49.8231 9.66635C50.1111 9.81635 50.3331 10.0353 50.4891 10.3233C50.6691 10.0473 50.9181 9.83135 51.2361 9.67535C51.5601 9.51935 51.9231 9.44135 52.3251 9.44135ZM60.8138 9.44135C61.2758 9.44135 61.6898 9.54335 62.0558 9.74735C62.4218 9.95135 62.7068 10.2363 62.9108 10.6023C63.1208 10.9683 63.2258 11.3913 63.2258 11.8713C63.2258 12.3513 63.1208 12.7773 62.9108 13.1493C62.7068 13.5153 62.4218 13.8003 62.0558 14.0043C61.6898 14.2083 61.2758 14.3103 60.8138 14.3103C60.4598 14.3103 60.1358 14.2413 59.8418 14.1033C59.5478 13.9653 59.3048 13.7643 59.1128 13.5003V14.2563H58.2848V7.57835H59.1488V10.2063C59.3408 9.95435 59.5808 9.76535 59.8688 9.63935C60.1568 9.50735 60.4718 9.44135 60.8138 9.44135ZM60.7418 13.5543C61.0478 13.5543 61.3208 13.4853 61.5608 13.3473C61.8068 13.2033 61.9988 13.0053 62.1368 12.7533C62.2808 12.4953 62.3528 12.2013 62.3528 11.8713C62.3528 11.5413 62.2808 11.2503 62.1368 10.9983C61.9988 10.7403 61.8068 10.5423 61.5608 10.4043C61.3208 10.2663 61.0478 10.1973 60.7418 10.1973C60.4418 10.1973 60.1688 10.2663 59.9228 10.4043C59.6768 10.5423 59.4848 10.7403 59.3468 10.9983C59.2088 11.2503 59.1398 11.5413 59.1398 11.8713C59.1398 12.2013 59.2088 12.4953 59.3468 12.7533C59.4848 13.0053 59.6768 13.2033 59.9228 13.3473C60.1688 13.4853 60.4418 13.5543 60.7418 13.5543ZM66.4626 14.3103C65.9886 14.3103 65.5626 14.2053 65.1846 13.9953C64.8066 13.7853 64.5096 13.4973 64.2936 13.1313C64.0836 12.7593 63.9786 12.3393 63.9786 11.8713C63.9786 11.4033 64.0836 10.9863 64.2936 10.6203C64.5096 10.2483 64.8066 9.96035 65.1846 9.75635C65.5626 9.54635 65.9886 9.44135 66.4626 9.44135C66.9366 9.44135 67.3596 9.54635 67.7316 9.75635C68.1096 9.96035 68.4036 10.2483 68.6136 10.6203C68.8296 10.9863 68.9376 11.4033 68.9376 11.8713C68.9376 12.3393 68.8296 12.7593 68.6136 13.1313C68.4036 13.4973 68.1096 13.7853 67.7316 13.9953C67.3596 14.2053 66.9366 14.3103 66.4626 14.3103ZM66.4626 13.5543C66.7686 13.5543 67.0416 13.4853 67.2816 13.3473C67.5276 13.2033 67.7196 13.0053 67.8576 12.7533C67.9956 12.4953 68.0646 12.2013 68.0646 11.8713C68.0646 11.5413 67.9956 11.2503 67.8576 10.9983C67.7196 10.7403 67.5276 10.5423 67.2816 10.4043C67.0416 10.2663 66.7686 10.1973 66.4626 10.1973C66.1566 10.1973 65.8806 10.2663 65.6346 10.4043C65.3946 10.5423 65.2026 10.7403 65.0586 10.9983C64.9206 11.2503 64.8516 11.5413 64.8516 11.8713C64.8516 12.2013 64.9206 12.4953 65.0586 12.7533C65.2026 13.0053 65.3946 13.2033 65.6346 13.3473C65.8806 13.4853 66.1566 13.5543 66.4626 13.5543ZM72.8145 13.9773C72.6885 14.0853 72.5325 14.1693 72.3465 14.2293C72.1605 14.2833 71.9685 14.3103 71.7705 14.3103C71.2905 14.3103 70.9185 14.1813 70.6545 13.9233C70.3905 13.6653 70.2585 13.2963 70.2585 12.8163V10.1973H69.4485V9.48635H70.2585V8.44235H71.1225V9.48635H72.4905V10.1973H71.1225V12.7803C71.1225 13.0383 71.1855 13.2363 71.3115 13.3743C71.4435 13.5123 71.6295 13.5813 71.8695 13.5813C72.1335 13.5813 72.3585 13.5063 72.5445 13.3563L72.8145 13.9773Z" fill="white"/>
<path d="M33.1474 24.2299C34.0135 24.2299 34.7896 24.4211 35.4757 24.8036C36.1618 25.186 36.6961 25.7203 37.0785 26.4064C37.4722 27.0925 37.6691 27.8855 37.6691 28.7853C37.6691 29.6851 37.4722 30.4837 37.0785 31.1811C36.6961 31.8672 36.1618 32.4015 35.4757 32.7839C34.7896 33.1664 34.0135 33.3576 33.1474 33.3576C32.4838 33.3576 31.8764 33.2282 31.3253 32.9695C30.7741 32.7108 30.3186 32.334 29.9586 31.8391V33.2563H28.4064V20.7375H30.0261V25.664C30.3861 25.1916 30.836 24.8373 31.3759 24.6011C31.9158 24.3537 32.5063 24.2299 33.1474 24.2299ZM33.0124 31.9403C33.5861 31.9403 34.0979 31.811 34.5478 31.5523C35.0089 31.2823 35.3689 30.9112 35.6276 30.4388C35.8975 29.9551 36.0325 29.4039 36.0325 28.7853C36.0325 28.1667 35.8975 27.6212 35.6276 27.1487C35.3689 26.6651 35.0089 26.2939 34.5478 26.0352C34.0979 25.7765 33.5861 25.6472 33.0124 25.6472C32.45 25.6472 31.9383 25.7765 31.4771 26.0352C31.0159 26.2939 30.656 26.6651 30.3973 27.1487C30.1386 27.6212 30.0093 28.1667 30.0093 28.7853C30.0093 29.4039 30.1386 29.9551 30.3973 30.4388C30.656 30.9112 31.0159 31.2823 31.4771 31.5523C31.9383 31.811 32.45 31.9403 33.0124 31.9403ZM43.7368 33.3576C42.8483 33.3576 42.0497 33.1607 41.3411 32.7671C40.6324 32.3734 40.0757 31.8335 39.6707 31.1474C39.2771 30.45 39.0802 29.6627 39.0802 28.7853C39.0802 27.908 39.2771 27.1263 39.6707 26.4401C40.0757 25.7428 40.6324 25.2029 41.3411 24.8204C42.0497 24.4268 42.8483 24.2299 43.7368 24.2299C44.6254 24.2299 45.4184 24.4268 46.1158 24.8204C46.8244 25.2029 47.3755 25.7428 47.7692 26.4401C48.1741 27.1263 48.3766 27.908 48.3766 28.7853C48.3766 29.6627 48.1741 30.45 47.7692 31.1474C47.3755 31.8335 46.8244 32.3734 46.1158 32.7671C45.4184 33.1607 44.6254 33.3576 43.7368 33.3576ZM43.7368 31.9403C44.3105 31.9403 44.8223 31.811 45.2722 31.5523C45.7333 31.2823 46.0933 30.9112 46.352 30.4388C46.6107 29.9551 46.74 29.4039 46.74 28.7853C46.74 28.1667 46.6107 27.6212 46.352 27.1487C46.0933 26.6651 45.7333 26.2939 45.2722 26.0352C44.8223 25.7765 44.3105 25.6472 43.7368 25.6472C43.1632 25.6472 42.6458 25.7765 42.1846 26.0352C41.7347 26.2939 41.3748 26.6651 41.1048 27.1487C40.8461 27.6212 40.7168 28.1667 40.7168 28.7853C40.7168 29.4039 40.8461 29.9551 41.1048 30.4388C41.3748 30.9112 41.7347 31.2823 42.1846 31.5523C42.6458 31.811 43.1632 31.9403 43.7368 31.9403ZM55.6444 32.7333C55.4082 32.9358 55.1157 33.0933 54.7671 33.2057C54.4184 33.307 54.0584 33.3576 53.6873 33.3576C52.7874 33.3576 52.0901 33.1157 51.5952 32.6321C51.1003 32.1484 50.8528 31.4567 50.8528 30.5569V25.6472H49.3343V24.3143H50.8528V22.3572H52.4725V24.3143H55.037V25.6472H52.4725V30.4894C52.4725 30.973 52.5906 31.3442 52.8268 31.6029C53.0743 31.8616 53.4229 31.991 53.8729 31.991C54.3678 31.991 54.7896 31.8504 55.1382 31.5692L55.6444 32.7333Z" fill="white"/>
<path d="M15.2587 27.685V25.0806H12.6294V27.685H10V30.2894H12.6294V32.8938H15.2587V30.2894H17.8881V27.685H15.2587Z" fill="#FFCE00"/>
<path d="M19.2023 19.8718H17.8876H15.2583H12.6289V22.4763V23.7785H15.2583V22.4763H17.8876H19.2023C20.6485 22.4763 21.8317 23.6482 21.8317 25.0807C21.8317 26.5131 20.6485 27.6851 19.2023 27.6851V30.2895C22.1078 30.2895 24.461 27.9586 24.461 25.0807C24.461 22.2028 22.1078 19.8718 19.2023 19.8718Z" fill="white"/>
<rect x="0.35" y="0.35" width="83.3" height="39.3" rx="5.65" stroke="#A6A6A6" stroke-width="0.7"/>
</svg>
