<svg width="116" height="30" viewBox="0 0 116 30" fill="none" xmlns="http://www.w3.org/2000/svg">
<path d="M50.943 24H44.8856V0H38.8281V30H44.8856H50.943H57.0004V24H50.943Z" fill="white"/>
<path d="M12.1149 18V12H6.05744V18H0V24H6.05744V30H12.1149V24H18.1723V18H12.1149Z" fill="#FFCE00"/>
<path d="M21.2002 0H18.1715H12.1141H6.05664V6V9H12.1141V6H18.1715H21.2002C24.5318 6 27.2577 8.7 27.2577 12C27.2577 15.3 24.5318 18 21.2002 18V24C27.8937 24 33.3151 18.63 33.3151 12C33.3151 5.37 27.8937 0 21.2002 0Z" fill="white"/>
<path d="M79.4731 18C79.4731 21.3 76.7473 24 73.4157 24C70.0841 24 67.3582 21.3 67.3582 18V0H61.3008V18C61.3008 24.63 66.7222 30 73.4157 30C80.1091 30 85.5305 24.63 85.5305 18V0H79.4731V18Z" fill="white"/>
<path d="M106.792 12H103.763H100.735C99.0688 12 97.7059 10.65 97.7059 9C97.7059 7.35 99.0688 6 100.735 6H103.763H106.792C108.458 6 109.821 7.35 109.821 9H115.878C115.878 4.05 111.789 0 106.792 0H103.763H100.735C95.7372 0 91.6484 4.05 91.6484 9C91.6484 13.95 95.7372 18 100.735 18H103.763H106.792C108.458 18 109.821 19.35 109.821 21C109.821 22.65 108.458 24 106.792 24H103.763H100.735C99.0688 24 97.7059 22.65 97.7059 21H91.6484C91.6484 25.95 95.7372 30 100.735 30H103.763H106.792C111.789 30 115.878 25.95 115.878 21C115.878 16.05 111.82 12 106.792 12Z" fill="white"/>
</svg>
